<?xml version="1.0" encoding="UTF-8" standalone="no"?><!-- Generator: Gravitdesign.com --><svg xmlns="http://www.w3.org/2000/svg" xmlns:xlink="http://www.w3.org/1999/xlink" style="isolation:isolate" viewBox="0 0 1500 500" width="1500pt" height="500pt"><defs><clipPath id="_clipPath_DyWhvdyDapqL6iYG4H5j6vRhBEWUigZr"><rect width="1500" height="500"/></clipPath></defs><g clip-path="url(#_clipPath_DyWhvdyDapqL6iYG4H5j6vRhBEWUigZr)"><rect width="1500" height="500" style="fill:rgb(0,0,0)" fill-opacity="0"/><g><g><path d=" M 300 153.571 L 150 78.571 L 0 153.571 L 0 346.429 L 150 421.429 L 300 346.429 L 300 153.571 Z " fill="rgb(200,50,50)"/><path d=" M 150 228.571 L 0 153.571 L 0 346.429 L 150 421.429 L 300 346.429 L 300 153.571 L 150 228.571 Z " fill="rgb(150,30,30)"/><path d=" M 150 228.571 L 150 421.429 L 300 346.429 L 300 153.571 L 150 228.571 Z " fill="rgb(218,99,99)"/></g></g><g clip-path="url(#_clipPath_JZ8SaGH8xWhQ5OwHr9OsydF9f9zBUHxQ)"><text transform="matrix(1,0,0,1,324.022,340.391)" style="font-family:'Segoe UI';font-weight:700;font-size:170px;font-style:normal;fill:#2e2e2e;stroke:#A2A2A2;stroke-width:5;">KogamaStudio</text></g><defs><clipPath id="_clipPath_JZ8SaGH8xWhQ5OwHr9OsydF9f9zBUHxQ"><rect x="0" y="0" width="1200" height="500" transform="matrix(1,0,0,1,300,-10)"/></clipPath></defs></g></svg>