<?xml version="1.0" encoding="UTF-8" standalone="no"?><!-- Generator: Gravitdesign.com --><svg xmlns="http://www.w3.org/2000/svg" xmlns:xlink="http://www.w3.org/1999/xlink" style="isolation:isolate" viewBox="0 0 1500 500" width="1500pt" height="500pt"><defs><clipPath id="_clipPath_5MjujQzwzXoga1hlyGevvqeuz6gjwchA"><rect width="1500" height="500"/></clipPath></defs><g clip-path="url(#_clipPath_5MjujQzwzXoga1hlyGevvqeuz6gjwchA)"><rect width="1500" height="500" style="fill:rgb(0,0,0)" fill-opacity="0"/><g><g><path d=" M 362.5 144.643 L 187.5 57.143 L 12.5 144.643 L 12.5 369.643 L 187.5 457.143 L 362.5 369.643 L 362.5 144.643 Z " fill="rgb(200,50,50)"/><path d=" M 187.5 232.143 L 12.5 144.643 L 12.5 369.643 L 187.5 457.143 L 362.5 369.643 L 362.5 144.643 L 187.5 232.143 Z " fill="rgb(150,30,30)"/><path d=" M 187.5 232.143 L 187.5 457.143 L 362.5 369.643 L 362.5 144.643 L 187.5 232.143 Z " fill="rgb(218,99,99)"/></g></g><g clip-path="url(#_clipPath_rKMG5LlN9L3udLSXAyEb9dMkIOFQFY20)"><text transform="matrix(1,0,0,1,424.681,342.109)" style="font-family:'Segoe UI';font-weight:700;font-size:150px;font-style:normal;fill:#464646;stroke:#D1D1D1;stroke-width:5;">KogamaStudio</text></g><defs><clipPath id="_clipPath_rKMG5LlN9L3udLSXAyEb9dMkIOFQFY20"><rect x="0" y="0" width="1137.5" height="500" transform="matrix(1,0,0,1,362.5,0)"/></clipPath></defs></g></svg>